Genre:Adventure | Sci-Fi
Language:English  http://www.imdb.com/title/tt1615091/
Source:720p HDTV DD5 1 x264-CtrlHD

Format : Matroska
File size : 1.47 GiB
Duration : 1h 27mn
Overall bit rate : 2 391 Kbps


Video
ID : 1
Format : AVC
Format/Info : Advanced Video Codec
Format profile : High@L3.1
Format settings, CABAC : Yes
Format settings, ReFrames : 4 frames
Format settings, GOP : M=1, N=13
Codec ID : V_MPEG4/ISO/AVC
Duration : 1h 27mn
Bit rate : 2 000 Kbps
Width : 1 280 pixels
Height : 720 pixels
Display aspect ratio : 16:9
Frame rate mode : Variable
Frame rate : 23.976 fps
Color space : YUV
Chroma subsampling : 4:2:0
Bit depth : 8 bits
Scan type : Progressive
Bits/(Pixel*Frame) : 0.091
Stream size : 1.20 GiB (82%)
Writing library : x264 core 106 r1732 b20059a


Audio
ID : 2
Format : AC-3
Format/Info : Audio Coding 3
Mode extension : CM (complete main)
Codec ID : A_AC3
Duration : 1h 27mn
Bit rate mode : Constant
Bit rate : 384 Kbps
Channel(s) : 6 channels
Channel positions : Front: L C R, Side: L R, LFE
Sampling rate : 48.0 KHz
Bit depth : 16 bits
Video delay : -1mn 5s
Stream size : 241 MiB (16%)
Language : English
 
http://rapidhdd.com/images/887374vlcsnap-2010-12-09-13h50m01s202.png 
http://www.rapidhdd.com/images/863859vlcsnap-2010-12-09-13h50m20s156.png 
http://www.rapidhdd.com/images/548092vlcsnap-2010-12-09-13h51m29s67.png
 
http://de.trailerfan.com/movie/the_lost_future/trailer

A group of post-apocalyptic survivors, struggle to survive in a world where jungles and forests and primeval wetlands and deserts have obliterated civilization. They staunchly face genetically mutating beasts and mysterious diseases in an attempt to re-establish the human race as masters of Earth